#Comment line ignore any data following # character 
#Hierarchical Translation and Rotation (.htr) file 
[Header]	
#Header keywords are followed by a single value 
FileType HTR		#Single word string
DataType HTRS		#Translation followed by rotation and scale data
FileVersion 1		#integer
NumSegments 84		#integer
NumFrames 2		#integer
DataFrameRate 30		#integer, data frame rate in this file
EulerRotationOrder ZYX
CalibrationUnits mm
RotationUnits Degrees
GlobalAxisofGravity Y
BoneLengthAxis Y
ScaleFactor 1.00
[SegmentNames&Hierarchy]
#CHILD	PARENT
MASTER GLOBAL
root MASTER
chest root
L_mid_tent01 root
R_mid_tent01 root
spine01 root
Bip01_Neck chest
L_humerus chest
R_humerus chest
weapon_bone chest
Bip01_Head Bip01_Neck
eye_left_bone Bip01_Head
eye_right_bone Bip01_Head
L_forearm L_humerus
L_front_hand L_forearm
L_weapon_bone L_forearm
L_front_hand01_01 L_front_hand
L_front_hand02_01 L_front_hand
L_front_hand03_01 L_front_hand
L_front_hand01_02 L_front_hand01_01
L_front_hand02_02 L_front_hand02_01
L_front_hand03_02 L_front_hand03_01
R_forearm R_humerus
R_front_hand R_forearm
R_weapon_bone R_forearm
R_front_hand01_01 R_front_hand
R_front_hand02_01 R_front_hand
R_front_hand03_01 R_front_hand
R_front_hand01_02 R_front_hand01_01
R_front_hand02_02 R_front_hand02_01
R_front_hand03_02 R_front_hand03_01
null_rope01_connect L_mid_tent01
Rope1_Seg01 null_rope01_connect
Rope1_Seg02 Rope1_Seg01
Rope1_Seg03 Rope1_Seg02
Rope1_Seg04 Rope1_Seg03
Rope1_Seg05 Rope1_Seg04
Rope1_Seg06 Rope1_Seg05
Rope1_Seg07 Rope1_Seg06
Rope1_Seg09 Rope1_Seg07
L_mid_hand01 Rope1_Seg09
L_mid_hand02 Rope1_Seg09
L_mid_hand03 Rope1_Seg09
null_rope02_connect R_mid_tent01
Rope2_Seg01 null_rope02_connect
Rope2_Seg02 Rope2_Seg01
Rope2_Seg03 Rope2_Seg02
Rope2_Seg04 Rope2_Seg03
Rope2_Seg05 Rope2_Seg04
Rope2_Seg06 Rope2_Seg05
Rope2_Seg07 Rope2_Seg06
Rope2_Seg09 Rope2_Seg07
R_mid_hand01 Rope2_Seg09
R_mid_hand02 Rope2_Seg09
R_mid_hand03 Rope2_Seg09
spine02 spine01
spine03 spine02
pelvis spine03
null_rope03_connect pelvis
null_rope04_connect pelvis
Rope3_Seg01 null_rope03_connect
Rope3_Seg02 Rope3_Seg01
Rope3_Seg03 Rope3_Seg02
Rope3_Seg04 Rope3_Seg03
Rope3_Seg05 Rope3_Seg04
Rope3_Seg06 Rope3_Seg05
Rope3_Seg07 Rope3_Seg06
Rope3_Seg08 Rope3_Seg07
Rope3_Seg09 Rope3_Seg08
R_rear_hand01 Rope3_Seg09
R_rear_hand02 Rope3_Seg09
R_rear_hand03 Rope3_Seg09
Rope4_Seg01 null_rope04_connect
Rope4_Seg02 Rope4_Seg01
Rope4_Seg03 Rope4_Seg02
Rope4_Seg04 Rope4_Seg03
Rope4_Seg05 Rope4_Seg04
Rope4_Seg06 Rope4_Seg05
Rope4_Seg07 Rope4_Seg06
Rope4_Seg08 Rope4_Seg07
Rope4_Seg09 Rope4_Seg08
L_rear_hand01 Rope4_Seg09
L_rear_hand02 Rope4_Seg09
L_rear_hand03 Rope4_Seg09
[BasePosition]
#SegmentName Tx, Ty, Tz, Rx, Ry, Rz, BoneLength
MASTER 0.000000 0.000000 0.000000 -90.000000 0.000000 0.000000 10.000000 
root 0.000000 0.000000 0.000000 0.000000 0.000000 0.000000 10.000000 
chest 0.000000 0.000000 0.000000 0.000000 0.000000 0.000000 10.000000 
L_mid_tent01 0.000000 0.000000 0.000000 0.000000 0.000000 0.000000 10.000000 
R_mid_tent01 0.000000 0.000000 0.000000 0.000000 0.000000 0.000000 10.000000 
spine01 0.000000 0.000000 0.000000 0.000000 0.000000 0.000000 10.000000 
Bip01_Neck 0.000000 0.000000 0.000000 0.000000 0.000000 0.000000 10.000000 
L_humerus 0.000000 0.000000 0.000000 0.000000 0.000000 0.000000 10.000000 
R_humerus 0.000000 0.000000 0.000000 0.000000 0.000000 0.000000 10.000000 
weapon_bone 0.000000 0.000000 0.000000 0.000000 0.000000 0.000000 10.000000 
Bip01_Head 0.000000 0.000000 0.000000 0.000000 0.000000 0.000000 10.000000 
eye_left_bone 0.000000 0.000000 0.000000 0.000000 0.000000 0.000000 10.000000 
eye_right_bone 0.000000 0.000000 0.000000 0.000000 0.000000 0.000000 10.000000 
L_forearm 0.000000 0.000000 0.000000 0.000000 0.000000 0.000000 10.000000 
L_front_hand 0.000000 0.000000 0.000000 0.000000 0.000000 0.000000 10.000000 
L_weapon_bone 0.000000 0.000000 0.000000 0.000000 0.000000 0.000000 10.000000 
L_front_hand01_01 0.000000 0.000000 0.000000 0.000000 0.000000 0.000000 10.000000 
L_front_hand02_01 0.000000 0.000000 0.000000 0.000000 0.000000 0.000000 10.000000 
L_front_hand03_01 0.000000 0.000000 0.000000 0.000000 0.000000 0.000000 10.000000 
L_front_hand01_02 0.000000 0.000000 0.000000 0.000000 0.000000 0.000000 10.000000 
L_front_hand02_02 0.000000 0.000000 0.000000 0.000000 0.000000 0.000000 10.000000 
L_front_hand03_02 0.000000 0.000000 0.000000 0.000000 0.000000 0.000000 10.000000 
R_forearm 0.000000 0.000000 0.000000 0.000000 0.000000 0.000000 10.000000 
R_front_hand 0.000000 0.000000 0.000000 0.000000 0.000000 0.000000 10.000000 
R_weapon_bone 0.000000 0.000000 0.000000 0.000000 0.000000 0.000000 10.000000 
R_front_hand01_01 0.000000 0.000000 0.000000 0.000000 0.000000 0.000000 10.000000 
R_front_hand02_01 0.000000 0.000000 0.000000 0.000000 0.000000 0.000000 10.000000 
R_front_hand03_01 0.000000 0.000000 0.000000 0.000000 0.000000 0.000000 10.000000 
R_front_hand01_02 0.000000 0.000000 0.000000 0.000000 0.000000 0.000000 10.000000 
R_front_hand02_02 0.000000 0.000000 0.000000 0.000000 0.000000 0.000000 10.000000 
R_front_hand03_02 0.000000 0.000000 0.000000 0.000000 0.000000 0.000000 10.000000 
null_rope01_connect 0.000000 0.000000 0.000000 0.000000 0.000000 0.000000 10.000000 
Rope1_Seg01 0.000000 0.000000 0.000000 0.000000 0.000000 0.000000 10.000000 
Rope1_Seg02 0.000000 0.000000 0.000000 0.000000 0.000000 0.000000 10.000000 
Rope1_Seg03 0.000000 0.000000 0.000000 0.000000 0.000000 0.000000 10.000000 
Rope1_Seg04 0.000000 0.000000 0.000000 0.000000 0.000000 0.000000 10.000000 
Rope1_Seg05 0.000000 0.000000 0.000000 0.000000 0.000000 0.000000 10.000000 
Rope1_Seg06 0.000000 0.000000 0.000000 0.000000 0.000000 0.000000 10.000000 
Rope1_Seg07 0.000000 0.000000 0.000000 0.000000 0.000000 0.000000 10.000000 
Rope1_Seg09 0.000000 0.000000 0.000000 0.000000 0.000000 0.000000 10.000000 
L_mid_hand01 0.000000 0.000000 0.000000 0.000000 0.000000 0.000000 10.000000 
L_mid_hand02 0.000000 0.000000 0.000000 0.000000 0.000000 0.000000 10.000000 
L_mid_hand03 0.000000 0.000000 0.000000 0.000000 0.000000 0.000000 10.000000 
null_rope02_connect 0.000000 0.000000 0.000000 0.000000 0.000000 0.000000 10.000000 
Rope2_Seg01 0.000000 0.000000 0.000000 0.000000 0.000000 0.000000 10.000000 
Rope2_Seg02 0.000000 0.000000 0.000000 0.000000 0.000000 0.000000 10.000000 
Rope2_Seg03 0.000000 0.000000 0.000000 0.000000 0.000000 0.000000 10.000000 
Rope2_Seg04 0.000000 0.000000 0.000000 0.000000 0.000000 0.000000 10.000000 
Rope2_Seg05 0.000000 0.000000 0.000000 0.000000 0.000000 0.000000 10.000000 
Rope2_Seg06 0.000000 0.000000 0.000000 0.000000 0.000000 0.000000 10.000000 
Rope2_Seg07 0.000000 0.000000 0.000000 0.000000 0.000000 0.000000 10.000000 
Rope2_Seg09 0.000000 0.000000 0.000000 0.000000 0.000000 0.000000 10.000000 
R_mid_hand01 0.000000 0.000000 0.000000 0.000000 0.000000 0.000000 10.000000 
R_mid_hand02 0.000000 0.000000 0.000000 0.000000 0.000000 0.000000 10.000000 
R_mid_hand03 0.000000 0.000000 0.000000 0.000000 0.000000 0.000000 10.000000 
spine02 0.000000 0.000000 0.000000 0.000000 0.000000 0.000000 10.000000 
spine03 0.000000 0.000000 0.000000 0.000000 0.000000 0.000000 10.000000 
pelvis 0.000000 0.000000 0.000000 0.000000 0.000000 0.000000 10.000000 
null_rope03_connect 0.000000 0.000000 0.000000 0.000000 0.000000 0.000000 10.000000 
null_rope04_connect 0.000000 0.000000 0.000000 0.000000 0.000000 0.000000 10.000000 
Rope3_Seg01 0.000000 0.000000 0.000000 0.000000 0.000000 0.000000 10.000000 
Rope3_Seg02 0.000000 0.000000 0.000000 0.000000 0.000000 0.000000 10.000000 
Rope3_Seg03 0.000000 0.000000 0.000000 0.000000 0.000000 0.000000 10.000000 
Rope3_Seg04 0.000000 0.000000 0.000000 0.000000 0.000000 0.000000 10.000000 
Rope3_Seg05 0.000000 0.000000 0.000000 0.000000 0.000000 0.000000 10.000000 
Rope3_Seg06 0.000000 0.000000 0.000000 0.000000 0.000000 0.000000 10.000000 
Rope3_Seg07 0.000000 0.000000 0.000000 0.000000 0.000000 0.000000 10.000000 
Rope3_Seg08 0.000000 0.000000 0.000000 0.000000 0.000000 0.000000 10.000000 
Rope3_Seg09 0.000000 0.000000 0.000000 0.000000 0.000000 0.000000 10.000000 
R_rear_hand01 0.000000 0.000000 0.000000 0.000000 0.000000 0.000000 10.000000 
R_rear_hand02 0.000000 0.000000 0.000000 0.000000 0.000000 0.000000 10.000000 
R_rear_hand03 0.000000 0.000000 0.000000 0.000000 0.000000 0.000000 10.000000 
Rope4_Seg01 0.000000 0.000000 0.000000 0.000000 0.000000 0.000000 10.000000 
Rope4_Seg02 0.000000 0.000000 0.000000 0.000000 0.000000 0.000000 10.000000 
Rope4_Seg03 0.000000 0.000000 0.000000 0.000000 0.000000 0.000000 10.000000 
Rope4_Seg04 0.000000 0.000000 0.000000 0.000000 0.000000 0.000000 10.000000 
Rope4_Seg05 0.000000 0.000000 0.000000 0.000000 0.000000 0.000000 10.000000 
Rope4_Seg06 0.000000 0.000000 0.000000 0.000000 0.000000 0.000000 10.000000 
Rope4_Seg07 0.000000 0.000000 0.000000 0.000000 0.000000 0.000000 10.000000 
Rope4_Seg08 0.000000 0.000000 0.000000 0.000000 0.000000 0.000000 10.000000 
Rope4_Seg09 0.000000 0.000000 0.000000 0.000000 0.000000 0.000000 10.000000 
L_rear_hand01 0.000000 0.000000 0.000000 0.000000 0.000000 0.000000 10.000000 
L_rear_hand02 0.000000 0.000000 0.000000 0.000000 0.000000 0.000000 10.000000 
L_rear_hand03 0.000000 0.000000 0.000000 0.000000 0.000000 0.000000 10.000000 
#Beginning of Data. Separated by tabs
#Fr	Tx	Ty	Tz	Rx	Ry	Rz	SF
[MASTER]
21 -0.000375 2500.000000 0.000000 0.001660 0.001660 0.001660 2500.000000
22 -0.000394 2625.000000 0.000000 0.001660 0.001660 0.001660 2625.000000
[root]
21 -32.615856 -61.520992 1476.671021 -91.728889 -11.584497 -89.471619 1478.311890
22 -34.057217 -59.089661 1481.649170 -91.728889 -11.584497 -89.471619 1483.218018
[chest]
21 -84.512650 -34.090519 0.000000 -2.185661 -0.116275 166.742142 91.129311
22 -84.512650 -34.090519 0.000000 -2.186307 -0.109873 166.820053 91.129311
[L_mid_tent01]
21 27.299126 22.179258 -249.918671 -20.348337 7.123889 14.843644 252.381668
22 27.299129 22.179258 -249.918671 -20.353704 7.219129 14.806754 252.381668
[R_mid_tent01]
21 23.228794 24.509907 226.238495 -165.750366 -9.002488 26.440735 228.744751
22 23.228794 24.509907 226.238495 -165.746155 -9.176479 26.396236 228.744751
[spine01]
21 -0.361383 -0.195265 0.000000 0.001954 0.001300 22.747614 0.410763
22 -0.361383 -0.195265 0.000000 0.001954 0.001300 22.717339 0.410763
[Bip01_Neck]
21 165.484543 71.581718 0.000119 176.643677 -1.657967 43.431911 180.302734
22 165.484543 71.581718 0.000119 176.643677 -1.657967 43.431911 180.302734
[L_humerus]
21 -13.983130 -135.272980 -120.471481 178.219055 3.792813 -90.101318 181.680161
22 -13.983130 -135.272980 -120.471481 178.228683 4.314226 -90.104782 181.680161
[R_humerus]
21 -13.983309 -135.273102 125.287651 -176.995270 -7.531815 -85.935593 184.909012
22 -13.983309 -135.273102 125.287651 -177.034760 -8.022293 -85.908058 184.909012
[weapon_bone]
21 235.964890 -300.705902 0.000000 0.000000 -89.951546 -128.212341 382.234833
22 235.964890 -300.705902 0.000000 0.000000 -89.951546 -128.212341 382.234833
[Bip01_Head]
21 213.659363 185.116455 19.510057 4.440152 -1.457900 -43.897720 283.370911
22 213.648071 185.147995 19.103861 4.440137 -1.444493 -43.899792 283.355316
[eye_left_bone]
21 -24.626970 125.451866 -64.772606 0.000000 -90.000000 -99.840431 143.318359
22 -24.626970 125.451866 -64.772606 0.000000 -90.000000 -99.840431 143.318359
[eye_right_bone]
21 -24.626970 125.451866 64.327362 0.000000 -89.965736 80.156380 143.117676
22 -24.626970 125.451866 64.327362 0.000000 -89.965736 80.156380 143.117676
[L_forearm]
21 322.776093 0.000000 -0.000119 0.000426 -0.002308 -110.933777 322.776093
22 322.776093 0.000000 -0.000119 0.000425 -0.002308 -110.845139 322.776093
[L_front_hand]
21 241.149185 -0.042021 -3.300071 -178.667953 -1.835447 -27.422350 241.171753
22 241.149185 -0.042021 -3.300071 -178.667953 -1.835447 -27.422342 241.171753
[L_weapon_bone]
21 156.183838 0.000000 0.000000 0.000014 0.000007 0.000001 156.183838
22 156.183838 0.000000 0.000000 0.000014 0.000007 0.000001 156.183838
[L_front_hand01_01]
21 86.095154 20.947098 -0.655860 -0.306535 -0.513312 68.646957 88.609184
22 86.095154 20.947098 -0.655860 -0.314053 -0.508434 69.417061 88.609184
[L_front_hand02_01]
21 86.935165 -11.437475 24.513514 145.004028 -56.473930 -50.323566 91.046425
22 86.935165 -11.437475 24.513514 145.968994 -56.908298 -51.478970 91.046425
[L_front_hand03_01]
21 86.637497 -14.123976 -20.424902 -145.151382 54.687630 -52.198425 90.126129
22 86.637497 -14.123976 -20.424902 -146.056091 55.123100 -53.303513 90.126129
[L_front_hand01_02]
21 71.020905 -0.000179 0.000030 0.000317 -0.002326 -105.540344 71.020905
22 71.020905 -0.000179 0.000030 0.000318 -0.002326 -105.579170 71.020905
[L_front_hand02_02]
21 71.020927 -0.000119 0.000060 0.000317 -0.002326 -105.540344 71.020927
22 71.020927 -0.000119 0.000060 0.000318 -0.002326 -105.579170 71.020927
[L_front_hand03_02]
21 71.020905 -0.000060 0.000060 0.000317 -0.002326 -105.540344 71.020905
22 71.020905 -0.000060 0.000060 0.000318 -0.002326 -105.579170 71.020905
[R_forearm]
21 322.776428 -0.000060 0.000030 0.201222 0.067830 -109.581192 322.776428
22 322.776428 -0.000060 0.000030 0.201263 0.067706 -109.510582 322.776428
[R_front_hand]
21 238.847015 -0.006795 2.210259 -2.635298 -10.645461 -26.312506 238.857239
22 238.847015 -0.006795 2.210259 -2.635298 -10.645461 -26.312506 238.857239
[R_weapon_bone]
21 155.664093 0.002503 -0.000030 0.003487 0.001180 -90.988930 155.664078
22 155.664093 0.002503 -0.000030 0.003487 0.001180 -90.988930 155.664078
[R_front_hand01_01]
21 87.624611 14.231146 22.918642 -144.694321 -56.325726 50.060078 91.683487
22 87.624611 14.231146 22.918642 -146.552536 -57.155418 52.280716 91.683487
[R_front_hand02_01]
21 89.356956 14.367283 -19.491137 145.240677 54.711166 52.540710 92.579636
22 89.356956 14.367283 -19.491137 146.998032 55.533031 54.685238 92.579636
[R_front_hand03_01]
21 87.286232 -22.307278 -0.143439 0.105409 -0.441003 -68.629547 90.091743
22 87.286232 -22.307278 -0.143439 0.117983 -0.440813 -70.109169 90.091743
[R_front_hand01_02]
21 71.020905 0.000060 0.000119 0.002323 -0.000334 106.381714 71.020905
22 71.020905 0.000060 0.000119 0.002323 -0.000334 106.381714 71.020905
[R_front_hand02_02]
21 71.020844 -0.000030 -0.000119 0.002323 -0.000334 106.381714 71.020836
22 71.020844 -0.000030 -0.000119 0.002323 -0.000334 106.381714 71.020836
[R_front_hand03_02]
21 71.020905 0.000000 0.000030 0.002323 -0.000334 106.381714 71.020905
22 71.020905 0.000000 0.000030 0.002323 -0.000334 106.381714 71.020905
[null_rope01_connect]
21 328.732483 0.000000 -0.000238 -166.214264 -66.895485 -108.200981 328.732483
22 328.732483 0.000000 -0.000238 -165.971451 -66.863503 -108.423180 328.732483
[Rope1_Seg01]
21 -0.000019 -0.000172 0.000076 98.604691 -3.049175 -90.577438 0.000189
22 -0.000020 -0.000178 0.000072 97.041290 -2.620780 -91.848526 0.000194
[Rope1_Seg02]
21 139.999863 -0.000179 0.000000 -0.507683 2.786496 -3.642539 139.999863
22 139.999863 -0.000179 0.000000 -0.200582 3.113052 -3.616073 139.999863
[Rope1_Seg03]
21 139.999924 0.000060 -0.000060 -2.679325 1.083634 -4.972477 139.999924
22 139.999924 0.000060 -0.000060 -2.931956 1.026717 -5.226226 139.999924
[Rope1_Seg04]
21 139.999924 -0.000060 -0.000119 1.912830 5.198855 -2.407222 139.999924
22 139.999924 -0.000060 -0.000119 2.731386 6.104433 -2.042521 139.999924
[Rope1_Seg05]
21 139.999832 0.000119 -0.000060 4.845321 5.849753 2.385774 139.999832
22 139.999832 0.000119 -0.000060 5.713974 6.870380 2.899929 139.999832
[Rope1_Seg06]
21 139.999954 0.000119 -0.000060 1.364053 2.074510 0.387480 139.999954
22 139.999954 0.000119 -0.000060 1.544775 2.384648 0.459275 139.999954
[Rope1_Seg07]
21 139.999985 0.000060 0.000000 0.700247 1.173113 0.117642 139.999985
22 139.999985 0.000060 0.000000 0.787410 1.336001 0.154278 139.999985
[Rope1_Seg09]
21 121.602913 0.000119 -0.000089 -89.793175 -1.359789 0.847147 121.602913
22 121.602913 0.000119 -0.000089 -89.793175 -1.359789 0.847147 121.602913
[L_mid_hand01]
21 103.859421 1.038730 8.195221 130.544403 -67.584549 -38.866970 104.187431
22 103.859421 1.038730 8.195221 130.544373 -67.584534 -38.866943 104.187431
[L_mid_hand02]
21 105.572853 -4.139662 -10.864139 -168.923172 43.409309 -73.498894 106.211075
22 105.572853 -4.139662 -10.864139 -168.923172 43.409309 -73.498886 106.211075
[L_mid_hand03]
21 104.641464 17.579376 -3.913581 -6.012627 17.808174 74.893669 106.179977
22 104.641464 17.579376 -3.913581 -6.012626 17.808172 74.893661 106.179977
[null_rope02_connect]
21 328.732849 0.000179 -0.000119 -160.805115 74.747192 -54.729523 328.732849
22 328.732849 0.000179 -0.000119 -160.251053 74.648720 -54.198677 328.732849
[Rope2_Seg01]
21 0.000095 -0.000095 0.000000 -44.678776 -5.616223 -86.904068 0.000135
22 0.000096 -0.000106 0.000000 -44.522659 -5.818043 -85.594818 0.000143
[Rope2_Seg02]
21 139.999741 -0.000060 -0.000119 0.537772 10.239037 -3.441475 139.999756
22 139.999741 -0.000060 -0.000119 0.136514 10.328557 -4.004191 139.999756
[Rope2_Seg03]
21 140.000107 0.000030 0.000000 1.043405 8.984365 -1.707397 140.000107
22 140.000107 0.000030 0.000000 0.839391 8.467339 -1.949794 140.000107
[Rope2_Seg04]
21 139.999802 0.000000 -0.000060 -0.880904 2.105743 -3.057089 139.999802
22 139.999802 0.000000 -0.000060 -0.936773 3.164954 -3.507964 139.999802
[Rope2_Seg05]
21 139.999985 -0.000060 0.000119 -1.113914 -1.676958 -2.198182 139.999985
22 139.999985 -0.000060 0.000119 -1.007844 -0.440721 -2.487398 139.999985
[Rope2_Seg06]
21 139.999893 -0.000030 -0.000119 -0.447003 -0.165366 -0.976960 139.999893
22 139.999893 -0.000030 -0.000119 -0.386953 0.299709 -1.082482 139.999893
[Rope2_Seg07]
21 139.999893 0.000060 -0.000060 -0.284982 -0.039429 -0.611509 139.999893
22 139.999893 0.000060 -0.000060 -0.247064 0.242548 -0.676432 139.999893
[Rope2_Seg09]
21 121.338966 0.000089 -0.000060 33.793236 -1.359788 -0.847141 121.338966
22 121.338966 0.000089 -0.000060 33.793236 -1.359788 -0.847141 121.338966
[R_mid_hand01]
21 104.680779 11.144459 -10.335981 -16.212063 45.237247 70.462852 105.778534
22 104.680779 11.144459 -10.335981 -16.212059 45.237240 70.462852 105.778534
[R_mid_hand02]
21 104.070427 2.443552 8.231699 49.067368 -67.749771 39.286453 104.424065
22 104.070427 2.443552 8.231699 49.067368 -67.749771 39.286453 104.424065
[R_mid_hand03]
21 106.028137 -11.221827 -5.996406 -177.101105 15.551026 -76.585571 106.788818
22 106.028137 -11.221827 -5.996406 -177.101105 15.551024 -76.585571 106.788818
[spine02]
21 129.756927 0.001550 0.000119 0.510413 -4.027509 -15.090856 129.756927
22 129.756927 0.001550 0.000119 0.501516 -4.028656 -14.977408 129.756927
[spine03]
21 78.613960 0.081635 -4.899013 1.988532 3.786154 17.836634 78.766495
22 78.613960 0.081635 -4.899014 1.982446 3.789320 17.757610 78.766495
[pelvis]
21 169.435242 0.051022 0.000000 -0.069668 -0.177997 16.840597 169.435257
22 169.435242 0.051022 0.000000 -0.069455 -0.178080 16.703104 169.435257
[null_rope03_connect]
21 -1.257226 -2.466202 137.391083 0.000000 -89.512215 59.258545 137.418976
22 -1.257226 -2.466202 137.391083 0.000000 -89.505440 59.407600 137.418976
[null_rope04_connect]
21 -1.259640 -2.480268 -137.844437 0.000000 -89.512215 59.258545 137.872513
22 -1.259640 -2.480268 -137.844437 0.000000 -89.505440 59.407600 137.872513
[Rope3_Seg01]
21 0.000010 0.000038 -0.000114 8.428326 25.682281 -100.085754 0.000121
22 0.000010 0.000038 -0.000114 7.428874 26.765503 -101.578178 0.000121
[Rope3_Seg02]
21 139.999924 -0.000119 0.000060 1.004136 -4.631606 0.302595 139.999924
22 139.999924 -0.000119 0.000060 1.166432 -4.911692 1.006104 139.999924
[Rope3_Seg03]
21 139.999924 -0.000119 0.000119 1.349490 -5.415993 -0.022556 139.999924
22 139.999924 -0.000119 0.000119 1.578685 -5.945569 1.009308 139.999924
[Rope3_Seg04]
21 139.999924 0.000119 0.000000 2.290699 -8.935473 -5.518110 139.999924
22 139.999924 0.000119 0.000000 3.144050 -10.708469 -3.722343 139.999924
[Rope3_Seg05]
21 139.999924 -0.000238 0.000060 2.730262 -1.562101 9.559052 139.999924
22 139.999924 -0.000238 0.000060 2.623472 -1.431886 9.885886 139.999924
[Rope3_Seg06]
21 139.999893 -0.000119 -0.000060 2.113577 5.893912 17.157398 139.999893
22 139.999893 -0.000119 -0.000060 1.750929 7.513531 15.204442 139.999893
[Rope3_Seg07]
21 139.999771 0.000060 -0.000119 0.556302 2.095421 7.813656 139.999771
22 139.999771 0.000060 -0.000119 0.586571 2.498694 6.815527 139.999771
[Rope3_Seg08]
21 139.999985 -0.000060 0.000000 0.359129 1.081939 4.309022 139.999985
22 139.999985 -0.000060 0.000000 0.435859 1.308516 3.786098 139.999985
[Rope3_Seg09]
21 90.185997 -0.000179 -0.000060 89.793228 -1.359877 -0.847183 90.185997
22 90.185997 -0.000179 -0.000060 89.793228 -1.359877 -0.847183 90.185997
[R_rear_hand01]
21 103.366196 -6.073594 -10.757982 -177.714203 24.565960 -73.910950 104.101845
22 103.366196 -6.073594 -10.757982 -177.714203 24.565960 -73.910950 104.101845
[R_rear_hand02]
21 100.509819 12.039542 -7.992327 -12.874829 36.868488 72.167213 101.543350
22 100.509819 12.039542 -7.992327 -12.874829 36.868488 72.167213 101.543350
[R_rear_hand03]
21 101.539970 5.215704 5.435467 71.484581 -71.816628 21.513813 101.819031
22 101.539970 5.215704 5.435467 71.484581 -71.816628 21.513813 101.819031
[Rope4_Seg01]
21 0.000010 0.000038 -0.000114 -92.223686 33.959190 -85.794769 0.000121
22 0.000010 0.000038 -0.000114 -92.223549 33.907619 -85.789124 0.000121
[Rope4_Seg02]
21 139.999985 0.000060 0.000119 -0.670282 0.183659 -7.859466 139.999985
22 139.999985 0.000060 0.000119 -0.665253 0.184343 -7.799970 139.999985
[Rope4_Seg03]
21 139.999924 0.000000 -0.000238 -1.113641 0.343845 -8.144607 139.999924
22 139.999924 0.000000 -0.000238 -1.108195 0.339791 -8.090004 139.999924
[Rope4_Seg04]
21 139.999985 0.000000 0.000119 -1.911032 2.195972 -9.152530 139.999985
22 139.999985 0.000000 0.000119 -1.893415 2.178498 -9.087330 139.999985
[Rope4_Seg05]
21 139.999802 -0.000060 -0.000119 -1.284395 -0.379287 -6.575920 139.999802
22 139.999802 -0.000060 -0.000119 -1.278941 -0.388711 -6.560961 139.999802
[Rope4_Seg06]
21 139.999924 0.000000 0.000060 -0.100857 -4.375806 -3.147586 139.999924
22 139.999924 0.000000 0.000060 -0.105327 -4.366066 -3.167217 139.999924
[Rope4_Seg07]
21 139.999802 0.000000 0.000000 -0.090182 -3.963751 -2.638028 139.999802
22 139.999802 0.000000 0.000000 -0.105223 -3.919590 -2.662267 139.999802
[Rope4_Seg08]
21 139.999924 0.000000 0.000119 -2.036953 -2.157948 -2.359611 139.999924
22 139.999924 0.000000 0.000119 -2.037545 -2.128283 -2.360116 139.999924
[Rope4_Seg09]
21 90.185791 0.000060 0.000060 -135.617828 2.228885 0.850567 90.185791
22 90.185791 0.000060 0.000060 -135.617828 2.228885 0.850567 90.185791
[L_rear_hand01]
21 101.696655 -8.392275 -7.654577 -12.874829 -36.868488 107.832764 102.329041
22 101.696655 -8.392275 -7.654577 -12.874827 -36.868492 107.832764 102.329041
[L_rear_hand02]
21 102.726799 -1.568258 5.773216 71.484581 71.816628 158.486160 102.900848
22 102.726799 -1.568258 5.773216 71.484581 71.816628 158.486160 102.900848
[L_rear_hand03]
21 104.552910 9.721220 -10.420293 -177.714203 -24.565960 -106.089035 105.519653
22 104.552910 9.721220 -10.420293 -177.714203 -24.565960 -106.089035 105.519653
